# xmcd CD database file
#
# Track frame offsets:
#	187
#	18755
#	46385
#	77327
#	108625
#	152872
#	192592
#
# Disc length: 2914 seconds
#
# Revision: 0
# Processed by: cddbd v1.5.2PL0 Copyright (c) Steve Scherf et al.
# Submitted via: CDex 1.70beta2
#
DISCID=4f0b6007
DTITLE=Lionel Hampton - One of a Kind
DYEAR=1900
DGENRE=Jazz
TTITLE0=air mail special
TTITLE1=valve Job
TTITLE2=Midnightsun
TTITLE3=Oleo
TTITLE4=Sakura'82
TTITLE5=Greasy Greens
TTITLE6=The Mess is here
EXTD=
EXTT0=
EXTT1=
EXTT2=
EXTT3=
EXTT4=
EXTT5=
EXTT6=
PLAYORDER=
